ply
format ascii 1.0
comment VCGLIB generated
element vertex 64
property float x
property float y
property float z
element face 128
property list uchar int vertex_indices
end_header
0.915908 1 0.4622862 
0.915908 0.4622862 1 
1.981258 0.4622862 0.4622862 
0.915908 0.4622862 -1 
0.915908 1 -0.4622862 
1.981258 0.4622862 -0.4622862 
1.981258 -0.4622862 0.4622862 
0.915908 -0.4622862 1 
0.915908 -1 0.4622862 
1.981258 -0.4622862 -0.4622862 
0.915908 -1 -0.4622862 
0.915908 -0.4622862 -1 
-0.915908 1 0.4622862 
-1.981258 0.4622862 0.4622862 
-0.915908 0.4622862 1 
-1.981258 0.4622862 -0.4622862 
-0.915908 1 -0.4622862 
-0.915908 0.4622862 -1 
-1.981258 -0.4622862 0.4622862 
-0.915908 -1 0.4622862 
-0.915908 -0.4622862 1 
-0.915908 -0.4622862 -1 
-0.915908 -1 -0.4622862 
-1.981258 -0.4622862 -0.4622862 
0.9054799 0.9545198 0.444323 
0.9054799 0.444323 0.9545198 
1.942395 0.4400413 0.4400413 
0.9054799 0.444323 -0.9545198 
0.9054799 0.9545198 -0.444323 
1.942395 0.4400413 -0.4400413 
1.942395 -0.4400413 0.4400413 
0.9054799 -0.444323 0.9545198 
0.9054799 -0.9545198 0.444323 
1.942395 -0.4400413 -0.4400413 
0.9054799 -0.9545198 -0.444323 
0.9054799 -0.444323 -0.9545198 
-0.9054799 0.9545198 0.444323 
-1.942395 0.4400413 0.4400413 
-0.9054799 0.444323 0.9545198 
-1.942395 0.4400413 -0.4400413 
-0.9054799 0.9545198 -0.444323 
-0.9054799 0.444323 -0.9545198 
-1.942395 -0.4400413 0.4400413 
-0.9054799 -0.9545198 0.444323 
-0.9054799 -0.444323 0.9545198 
-0.9054799 -0.444323 -0.9545198 
-0.9054799 -0.9545198 -0.444323 
-1.942395 -0.4400413 -0.4400413 
-0.422181 -1 0.3320939 
0.422181 -1 0.3320939 
-0.422181 -1 -0.3320939 
0.422181 -1 -0.3320939 
0.422181 1 0.3320939 
-0.422181 1 0.3320939 
-0.422181 1 -0.3320939 
0.422181 1 -0.3320939 
-0.422181 -0.9545198 -0.3320939 
0.422181 -0.9545198 -0.3320939 
-0.422181 -0.9545198 0.3320939 
0.422181 -0.9545198 0.3320939 
-0.422181 0.9545198 -0.3320939 
0.422181 0.9545198 -0.3320939 
0.422181 0.9545198 0.3320939 
-0.422181 0.9545198 0.3320939 
3 3 21 17 
3 18 15 23 
3 48 49 8 
3 22 51 50 
3 14 7 1 
3 2 9 5 
3 0 1 2 
3 3 4 5 
3 6 7 8 
3 9 10 11 
3 12 13 14 
3 15 16 17 
3 18 19 20 
3 21 22 23 
3 21 15 17 
3 17 4 3 
3 5 0 2 
3 19 23 22 
3 10 6 8 
3 16 13 12 
3 20 8 7 
3 7 2 1 
3 11 22 21 
3 14 18 20 
3 1 12 14 
3 3 9 11 
3 52 53 12 
3 16 55 4 
3 45 27 41 
3 39 42 47 
3 43 59 58 
3 34 46 57 
3 31 38 25 
3 33 26 29 
3 24 26 25 
3 27 29 28 
3 30 32 31 
3 33 35 34 
3 36 38 37 
3 39 41 40 
3 42 44 43 
3 45 47 46 
3 39 45 41 
3 28 41 27 
3 24 29 26 
3 47 43 46 
3 30 34 32 
3 37 40 36 
3 32 44 31 
3 26 31 25 
3 46 35 45 
3 42 38 44 
3 36 25 38 
3 33 27 35 
3 24 63 62 
3 40 28 60 
3 50 58 48 
3 53 60 54 
3 61 52 55 
3 51 59 57 
3 55 60 61 
3 50 57 56 
3 52 63 53 
3 48 59 49 
3 3 11 21 
3 18 13 15 
3 49 51 10 
3 19 22 50 
3 19 50 48 
3 49 10 8 
3 19 48 8 
3 22 10 51 
3 14 20 7 
3 2 6 9 
3 21 23 15 
3 17 16 4 
3 5 4 0 
3 19 18 23 
3 10 9 6 
3 16 15 13 
3 20 19 8 
3 7 6 2 
3 11 10 22 
3 14 13 18 
3 1 0 12 
3 3 5 9 
3 54 16 12 
3 0 4 55 
3 0 55 52 
3 53 54 12 
3 0 52 12 
3 16 54 55 
3 45 35 27 
3 39 37 42 
3 43 32 59 
3 59 32 34 
3 46 43 56 
3 43 58 56 
3 57 59 34 
3 46 56 57 
3 31 44 38 
3 33 30 26 
3 39 47 45 
3 28 40 41 
3 24 28 29 
3 47 42 43 
3 30 33 34 
3 37 39 40 
3 32 43 44 
3 26 30 31 
3 46 34 35 
3 42 37 38 
3 36 24 25 
3 33 29 27 
3 24 36 63 
3 63 36 40 
3 28 24 61 
3 24 62 61 
3 60 63 40 
3 28 61 60 
3 50 56 58 
3 53 63 60 
3 61 62 52 
3 51 49 59 
3 55 54 60 
3 50 51 57 
3 52 62 63 
3 48 58 59 
