ply
format ascii 1.0
comment VCGLIB generated
element vertex 585
property float x
property float y
property float z
element face 1150
property list uchar int vertex_indices
end_header
-0.306407 1 -1 
0.306407 1 -1 
0.306407 -0.306407 -1 
-0.306407 -0.306407 -1 
-1 -0.306407 -0.306407 
-1 -0.306407 0.306407 
-1.275273 1.121747 0.474635 
-1.017306 1.03009 -0.314884 
0.306407 -1 -0.306407 
0.306407 -1 0.306407 
-0.306407 -1 0.306407 
-0.306407 -1 -0.306407 
0.411066 0.362155 1.439557 
-0.309931 0.312909 1.017612 
-0.311241 -0.310381 1.010854 
0.354504 -0.453319 1.226032 
1.000826 1.000362 -0.306831 
1.056244 1.129203 0.367599 
1.228927 -0.372799 0.399802 
1.011492 -0.312769 -0.310936 
-2.928144 0.502606 -0.682318 
-2.928144 0.502606 1.317682 
-2.928144 2.502605 1.317682 
-2.928144 2.502605 -0.682318 
-0.928144 2.502605 1.317682 
-0.928144 2.502605 -0.682318 
-0.928144 0.502606 1.317682 
-0.928144 0.502606 -0.682318 
-1.248059 4.255306 0.62004 
-1.248059 3.255306 2.62004 
-1.052969 4.236091 0.62004 
-0.865376 4.179185 0.62004 
-0.692489 4.086776 0.62004 
-0.540952 3.962413 0.62004 
-0.41659 3.810876 0.62004 
-0.32418 3.63799 0.62004 
-0.267274 3.450396 0.62004 
-0.248059 3.255306 0.62004 
-0.267274 3.060216 0.62004 
-0.32418 2.872622 0.62004 
-0.416589 2.699736 0.62004 
-0.540952 2.548199 0.62004 
-0.692489 2.423836 0.62004 
-0.865376 2.331427 0.62004 
-1.052969 2.274521 0.62004 
-1.248059 2.255306 0.62004 
-1.443149 2.274521 0.62004 
-1.630743 2.331427 0.62004 
-1.803629 2.423836 0.62004 
-1.955166 2.548199 0.62004 
-2.079529 2.699736 0.62004 
-2.171939 2.872622 0.62004 
-2.228844 3.060216 0.62004 
-2.248059 3.255306 0.62004 
-2.228844 3.450397 0.62004 
-2.171939 3.63799 0.62004 
-2.079529 3.810876 0.62004 
-1.955166 3.962413 0.62004 
-1.803629 4.086776 0.62004 
-1.630743 4.179185 0.62004 
-1.443149 4.236091 0.62004 
1.991095 0.561545 -0.779597 
2.416417 0.252534 -0.630251 
1.828639 0.06155 -0.630251 
2.714702 0.03582 -0.226817 
2.841743 0.561545 -0.305333 
1.465365 0.561545 -0.630249 
1.828639 1.06154 -0.630251 
2.416417 0.870556 -0.630251 
2.942153 0.252532 0.220403 
1.714707 -0.289104 -0.226817 
2.253963 -0.247467 -0.305335 
1.991095 -0.438455 0.220403 
1.096668 0.561545 -0.226813 
1.302905 0.061548 -0.305333 
1.040037 0.252532 0.220403 
1.714707 1.412194 -0.226817 
1.302905 1.061542 -0.305333 
1.403309 1.370562 0.220403 
2.714702 1.08727 -0.226817 
2.253963 1.370557 -0.305335 
2.57888 1.370562 0.220403 
2.57888 -0.247472 0.220403 
1.403309 -0.247472 0.220403 
1.040037 0.870558 0.220403 
1.991095 1.561545 0.220403 
2.942153 0.870558 0.220403 
2.267483 -0.289104 0.667623 
2.679284 0.061548 0.746139 
2.15355 0.06155 1.071057 
1.267487 0.03582 0.667622 
1.728226 -0.247467 0.746141 
1.565772 0.252534 1.071057 
1.267487 1.08727 0.667622 
1.140447 0.561545 0.746139 
1.565772 0.870556 1.071057 
2.267483 1.412194 0.667623 
1.728226 1.370557 0.746141 
2.15355 1.06154 1.071057 
2.885521 0.561545 0.667619 
2.679284 1.061542 0.746139 
2.516824 0.561545 1.071055 
1.991095 0.561545 1.220403 
0.338943 -0.570115 0.436677 
0.338944 -0.550901 0.631767 
0.534033 -0.570115 0.631767 
0.530285 -0.58896 0.436677 
0.338943 -1.168217 1.555646 
0.338943 -1.35581 1.612552 
0.377003 -1.359558 1.612552 
0.413601 -1.17557 1.555646 
0.338943 -0.627021 0.249083 
0.519183 -0.644773 0.249083 
0.338943 -0.99533 1.463236 
0.447329 -1.006005 1.463236 
0.338943 -0.71943 0.076197 
0.501155 -0.735407 0.076197 
0.338943 -0.843793 1.338874 
0.476893 -0.85738 1.338874 
0.338943 -0.843793 -0.07534 
0.476893 -0.85738 -0.07534 
0.338943 -0.719431 1.187337 
0.501155 -0.735407 1.187337 
0.338943 -0.99533 -0.199703 
0.447329 -1.006005 -0.199703 
0.338943 -0.627021 1.01445 
0.519183 -0.644773 1.01445 
0.338943 -1.168217 -0.292113 
0.413601 -1.17557 -0.292113 
0.338943 -0.570115 0.826857 
0.530285 -0.58896 0.826857 
0.338943 -1.35581 -0.349018 
0.377003 -1.359558 -0.349018 
0.338943 -1.5509 1.631767 
0.338943 -1.5509 -0.368233 
0.48539 -1.197347 -0.292113 
0.413601 -1.37066 -0.349018 
0.714273 -0.644773 0.826857 
0.721627 -0.627021 0.631767 
0.413601 -1.37066 1.612552 
0.714273 -0.644773 0.436677 
0.48539 -1.197347 1.555646 
0.692497 -0.697347 0.249083 
0.551551 -1.03762 1.463236 
0.657133 -0.782722 0.076197 
0.609541 -0.897619 1.338874 
0.609541 -0.897619 -0.07534 
0.657133 -0.782722 1.187337 
0.551551 -1.03762 -0.199703 
0.692496 -0.697347 1.01445 
0.800883 -0.859558 0.076197 
0.731791 -0.962962 -0.07534 
0.731791 -0.962962 1.338874 
0.800883 -0.859559 1.187337 
0.647601 -1.08896 -0.199703 
0.852223 -0.782722 1.01445 
0.551551 -1.23271 -0.292113 
0.883838 -0.735407 0.826857 
0.447329 -1.388688 -0.349018 
0.894513 -0.719431 0.631767 
0.447329 -1.388688 1.612552 
0.883838 -0.735407 0.436677 
0.551551 -1.23271 1.555646 
0.852223 -0.782722 0.249083 
0.647601 -1.08896 1.463236 
0.476893 -1.41295 1.612552 
0.476893 -1.412951 -0.349018 
1.04605 -0.843794 0.631767 
1.032463 -0.85738 0.436677 
0.609541 -1.280302 1.555646 
0.992225 -0.897619 0.249083 
0.731791 -1.158053 1.463236 
0.926881 -0.962962 0.076197 
0.838943 -1.0509 1.338874 
0.838943 -1.0509 -0.07534 
0.926881 -0.962962 1.187337 
0.731791 -1.158053 -0.199703 
0.992225 -0.897619 1.01445 
0.609541 -1.280302 -0.292113 
1.032463 -0.85738 0.826857 
0.926881 -1.158053 1.338874 
1.030285 -1.08896 1.187337 
0.926881 -1.158053 -0.07534 
0.800883 -1.242242 -0.199703 
1.107121 -1.03762 1.01445 
0.657133 -1.338293 -0.292113 
1.154436 -1.006005 0.826857 
0.501155 -1.442514 -0.349018 
1.170413 -0.99533 0.631767 
0.501155 -1.442514 1.612552 
1.154436 -1.006005 0.436677 
0.657133 -1.338293 1.555646 
1.107121 -1.03762 0.249083 
0.800883 -1.242242 1.463236 
1.030285 -1.08896 0.076197 
1.262822 -1.168217 0.631767 
1.24507 -1.17557 0.436677 
0.519183 -1.476242 1.612552 
0.692497 -1.404454 1.555646 
1.192497 -1.197347 0.249083 
0.852223 -1.338293 1.463236 
1.107121 -1.232711 0.076197 
0.992225 -1.280302 1.338874 
0.992225 -1.280302 -0.07534 
1.107121 -1.232711 1.187337 
0.852223 -1.338293 -0.199703 
1.192496 -1.197347 1.01445 
0.692497 -1.404454 -0.292113 
1.24507 -1.17557 0.826857 
0.519183 -1.476242 -0.349018 
1.032463 -1.412951 -0.07534 
0.883838 -1.442514 -0.199703 
1.154436 -1.388689 1.187337 
1.24507 -1.37066 1.01445 
0.714273 -1.476242 -0.292113 
1.300883 -1.359558 0.826857 
0.530285 -1.51284 -0.349018 
1.319728 -1.35581 0.631767 
0.530285 -1.51284 1.612552 
1.300883 -1.359558 0.436677 
0.714273 -1.476242 1.555646 
1.245071 -1.37066 0.249083 
0.883838 -1.442514 1.463236 
1.154436 -1.388689 0.076197 
1.032463 -1.412951 1.338874 
0.534033 -1.5509 1.612552 
0.721627 -1.5509 1.555646 
1.319728 -1.5509 0.436677 
1.262823 -1.5509 0.249083 
0.894513 -1.5509 1.463236 
1.170413 -1.5509 0.076197 
1.04605 -1.5509 1.338874 
1.04605 -1.5509 -0.07534 
1.170413 -1.5509 1.187337 
0.894513 -1.5509 -0.199703 
1.262822 -1.5509 1.01445 
0.721627 -1.5509 -0.292113 
1.319728 -1.5509 0.826857 
0.534033 -1.5509 -0.349018 
1.338943 -1.5509 0.631767 
1.154436 -1.713112 1.187337 
1.24507 -1.73114 1.01445 
0.883838 -1.659287 -0.199703 
0.714273 -1.625558 -0.292113 
1.300883 -1.742242 0.826857 
0.530285 -1.58896 -0.349018 
1.319728 -1.745991 0.631767 
0.530285 -1.58896 1.612552 
1.300883 -1.742242 0.436677 
0.714273 -1.625558 1.555646 
1.24507 -1.73114 0.249083 
0.883838 -1.659287 1.463236 
1.154436 -1.713112 0.076197 
1.032463 -1.68885 1.338874 
1.032463 -1.68885 -0.07534 
1.24507 -1.92623 0.436677 
1.192496 -1.904454 0.249083 
0.692497 -1.697347 1.555646 
0.852223 -1.763508 1.463236 
1.107121 -1.86909 0.076197 
0.992224 -1.821498 1.338874 
0.992224 -1.821498 -0.07534 
1.107121 -1.86909 1.187337 
0.852223 -1.763508 -0.199703 
1.192496 -1.904454 1.01445 
0.692497 -1.697347 -0.292113 
1.24507 -1.92623 0.826857 
0.519183 -1.625558 -0.349018 
1.262822 -1.933583 0.631767 
0.519183 -1.625558 1.612552 
0.800883 -1.859558 -0.199703 
0.657133 -1.763508 -0.292113 
1.107121 -2.06418 1.01445 
1.154436 -2.095795 0.826857 
0.501155 -1.659286 -0.349018 
1.170412 -2.10647 0.631767 
0.501155 -1.659286 1.612552 
1.154436 -2.095795 0.436677 
0.657133 -1.763508 1.555646 
1.107121 -2.06418 0.249083 
0.800883 -1.859558 1.463236 
1.030285 -2.01284 0.076197 
0.926881 -1.943748 1.338874 
0.926881 -1.943748 -0.07534 
1.030285 -2.01284 1.187337 
0.992224 -2.204182 0.249083 
0.926881 -2.138838 0.076197 
0.73179 -1.943748 1.463236 
0.838943 -2.0509 1.338874 
0.838943 -2.0509 -0.07534 
0.926881 -2.138838 1.187337 
0.73179 -1.943748 -0.199703 
0.992224 -2.204181 1.01445 
0.609541 -1.821498 -0.292113 
1.032463 -2.24442 0.826857 
0.476893 -1.68885 -0.349018 
1.046049 -2.258007 0.631767 
0.476893 -1.68885 1.612552 
1.032463 -2.24442 0.436677 
0.609541 -1.821498 1.555646 
0.551551 -1.86909 -0.292113 
0.447329 -1.713112 -0.349018 
0.883838 -2.366393 0.826857 
0.894513 -2.38237 0.631767 
0.447329 -1.713112 1.612552 
0.883838 -2.366393 0.436677 
0.551551 -1.86909 1.555646 
0.852223 -2.319078 0.249083 
0.647601 -2.01284 1.463236 
0.800883 -2.242242 0.076197 
0.731791 -2.138838 1.338874 
0.731791 -2.138838 -0.07534 
0.800883 -2.242242 1.187337 
0.647601 -2.01284 -0.199703 
0.852223 -2.319078 1.01445 
0.551551 -2.06418 1.463236 
0.609541 -2.204182 1.338874 
0.657133 -2.319078 0.076197 
0.609541 -2.204182 -0.07534 
0.657133 -2.319077 1.187337 
0.551551 -2.06418 -0.199703 
0.692496 -2.404453 1.01445 
0.48539 -1.904454 -0.292113 
0.714273 -2.457027 0.826857 
0.413601 -1.73114 -0.349018 
0.721626 -2.474779 0.631767 
0.413601 -1.73114 1.612552 
0.714273 -2.457027 0.436677 
0.48539 -1.904454 1.555646 
0.692496 -2.404454 0.249083 
0.530285 -2.51284 0.826857 
0.534033 -2.531685 0.631767 
0.377003 -1.742242 1.612552 
0.377003 -1.742242 -0.349018 
0.530285 -2.51284 0.436677 
0.413601 -1.926231 1.555646 
0.519183 -2.457027 0.249083 
0.447329 -2.095795 1.463236 
0.501155 -2.366393 0.076197 
0.476893 -2.24442 1.338874 
0.476893 -2.24442 -0.07534 
0.501155 -2.366393 1.187337 
0.447329 -2.095795 -0.199703 
0.519183 -2.457027 1.01445 
0.413601 -1.926231 -0.292113 
0.338943 -2.38237 0.076197 
0.338943 -2.258007 -0.07534 
0.338943 -2.258007 1.338874 
0.338943 -2.38237 1.187337 
0.338943 -2.10647 -0.199703 
0.338943 -2.474779 1.01445 
0.338943 -1.933584 -0.292113 
0.338943 -2.531685 0.826857 
0.338943 -1.745991 -0.349018 
0.338943 -2.5509 0.631767 
0.338943 -1.745991 1.612552 
0.338943 -2.531685 0.436677 
0.338943 -1.933584 1.555646 
0.338943 -2.47478 0.249083 
0.338943 -2.10647 1.463236 
0.300883 -1.742242 1.612552 
0.300883 -1.742242 -0.349018 
0.143853 -2.531685 0.631767 
0.147601 -2.51284 0.436677 
0.264285 -1.92623 1.555646 
0.158703 -2.457027 0.249083 
0.230557 -2.095795 1.463236 
0.176731 -2.366393 0.076197 
0.200993 -2.24442 1.338874 
0.200993 -2.24442 -0.07534 
0.176731 -2.366393 1.187337 
0.230557 -2.095795 -0.199703 
0.158703 -2.457027 1.01445 
0.264285 -1.92623 -0.292113 
0.147601 -2.51284 0.826857 
0.068345 -2.204181 1.338874 
0.020754 -2.319077 1.187337 
0.068345 -2.204181 -0.07534 
0.126336 -2.06418 -0.199703 
-0.01461 -2.404453 1.01445 
0.192496 -1.904454 -0.292113 
-0.036387 -2.457027 0.826857 
0.264285 -1.73114 -0.349018 
-0.04374 -2.474779 0.631767 
0.264285 -1.73114 1.612552 
-0.036387 -2.457027 0.436677 
0.192496 -1.904454 1.555646 
-0.01461 -2.404453 0.249083 
0.126336 -2.06418 1.463236 
0.020754 -2.319077 0.076197 
-0.216627 -2.382369 0.631767 
-0.205952 -2.366393 0.436677 
0.230557 -1.713112 1.612552 
0.126335 -1.86909 1.555646 
-0.174337 -2.319078 0.249083 
0.030285 -2.01284 1.463236 
-0.122996 -2.242242 0.076197 
-0.053904 -2.138838 1.338874 
-0.053904 -2.138838 -0.07534 
-0.122996 -2.242242 1.187337 
0.030285 -2.01284 -0.199703 
-0.174337 -2.319078 1.01445 
0.126336 -1.86909 -0.292113 
-0.205952 -2.366393 0.826857 
0.230557 -1.713112 -0.349018 
-0.161057 -2.0509 -0.07534 
-0.053904 -1.943747 -0.199703 
-0.248994 -2.138838 1.187337 
-0.314338 -2.204181 1.01445 
0.068345 -1.821498 -0.292113 
-0.354577 -2.24442 0.826857 
0.200993 -1.68885 -0.349018 
-0.368163 -2.258006 0.631767 
0.200993 -1.68885 1.612552 
-0.354577 -2.24442 0.436677 
0.068345 -1.821498 1.555646 
-0.314338 -2.204181 0.249083 
-0.053904 -1.943747 1.463236 
-0.248994 -2.138838 0.076197 
-0.161057 -2.0509 1.338874 
-0.47655 -2.095795 0.436677 
-0.429235 -2.06418 0.249083 
0.020753 -1.763508 1.555646 
-0.122996 -1.859558 1.463236 
-0.352398 -2.01284 0.076197 
-0.248995 -1.943748 1.338874 
-0.248995 -1.943748 -0.07534 
-0.352398 -2.01284 1.187337 
-0.122996 -1.859558 -0.199703 
-0.429234 -2.06418 1.01445 
0.020753 -1.763508 -0.292113 
-0.47655 -2.095795 0.826857 
0.176731 -1.659286 -0.349018 
-0.492526 -2.10647 0.631767 
0.176731 -1.659286 1.612552 
-0.174337 -1.763507 -0.199703 
-0.01461 -1.697347 -0.292113 
-0.51461 -1.904453 1.01445 
-0.567184 -1.92623 0.826857 
0.158703 -1.625558 -0.349018 
-0.584936 -1.933583 0.631767 
0.158703 -1.625558 1.612552 
-0.567184 -1.92623 0.436677 
-0.01461 -1.697347 1.555646 
-0.51461 -1.904453 0.249083 
-0.174337 -1.763507 1.463236 
-0.429234 -1.86909 0.076197 
-0.314338 -1.821498 1.338874 
-0.314338 -1.821498 -0.07534 
-0.429234 -1.86909 1.187337 
-0.036387 -1.625558 1.555646 
-0.205952 -1.659286 1.463236 
-0.567184 -1.73114 0.249083 
-0.47655 -1.713112 0.076197 
-0.354577 -1.68885 1.338874 
-0.354577 -1.68885 -0.07534 
-0.47655 -1.713112 1.187337 
-0.205952 -1.659286 -0.199703 
-0.567184 -1.73114 1.01445 
-0.036387 -1.625558 -0.292113 
-0.622996 -1.742242 0.826857 
0.147601 -1.58896 -0.349018 
-0.641841 -1.74599 0.631767 
0.147601 -1.58896 1.612552 
-0.622996 -1.742242 0.436677 
-0.584936 -1.5509 1.01445 
-0.641842 -1.5509 0.826857 
-0.04374 -1.5509 -0.292113 
0.143853 -1.5509 -0.349018 
-0.661056 -1.5509 0.631767 
0.143853 -1.5509 1.612552 
-0.641842 -1.5509 0.436677 
-0.04374 -1.5509 1.555646 
-0.584936 -1.5509 0.249083 
-0.216627 -1.5509 1.463236 
-0.492526 -1.5509 0.076197 
-0.368163 -1.5509 1.338874 
-0.368163 -1.5509 -0.07534 
-0.492526 -1.5509 1.187337 
-0.216627 -1.5509 -0.199703 
-0.567184 -1.37066 0.249083 
-0.47655 -1.388689 0.076197 
-0.205952 -1.442514 1.463236 
-0.354577 -1.412951 1.338874 
-0.354577 -1.412951 -0.07534 
-0.47655 -1.388689 1.187337 
-0.205952 -1.442514 -0.199703 
-0.567184 -1.37066 1.01445 
-0.036387 -1.476242 -0.292113 
-0.622996 -1.359558 0.826857 
0.147601 -1.51284 -0.349018 
-0.641841 -1.35581 0.631767 
0.147601 -1.51284 1.612552 
-0.622996 -1.359558 0.436677 
-0.036387 -1.476242 1.555646 
-0.01461 -1.404454 -0.292113 
0.158703 -1.476242 -0.349018 
-0.567184 -1.17557 0.826857 
-0.584935 -1.168217 0.631767 
0.158703 -1.476242 1.612552 
-0.567184 -1.17557 0.436677 
-0.01461 -1.404454 1.555646 
-0.51461 -1.197347 0.249083 
-0.174337 -1.338293 1.463236 
-0.429234 -1.232711 0.076197 
-0.314338 -1.280302 1.338874 
-0.314338 -1.280302 -0.07534 
-0.429234 -1.232711 1.187337 
-0.174337 -1.338293 -0.199703 
-0.51461 -1.197347 1.01445 
-0.122996 -1.242242 1.463236 
-0.248995 -1.158053 1.338874 
-0.352398 -1.088961 0.076197 
-0.248995 -1.158053 -0.07534 
-0.352398 -1.088961 1.187337 
-0.122996 -1.242242 -0.199703 
-0.429234 -1.03762 1.01445 
0.020754 -1.338293 -0.292113 
-0.47655 -1.006005 0.826857 
0.176731 -1.442514 -0.349018 
-0.492525 -0.99533 0.631767 
0.176731 -1.442514 1.612552 
-0.47655 -1.006005 0.436677 
0.020754 -1.338293 1.555646 
-0.429234 -1.03762 0.249083 
-0.354576 -0.857381 0.826857 
-0.368163 -0.843794 0.631767 
0.200993 -1.412951 1.612552 
0.200993 -1.412951 -0.349018 
-0.354576 -0.857381 0.436677 
0.068345 -1.280302 1.555646 
-0.314338 -0.897619 0.249083 
-0.053904 -1.158053 1.463236 
-0.248994 -0.962963 0.076197 
-0.161057 -1.0509 1.338874 
-0.161057 -1.0509 -0.07534 
-0.248994 -0.962963 1.187337 
-0.053904 -1.158053 -0.199703 
-0.314338 -0.897619 1.01445 
0.068345 -1.280302 -0.292113 
-0.122996 -0.859559 0.076197 
-0.053904 -0.962963 -0.07534 
-0.053904 -0.962963 1.338874 
-0.122996 -0.859559 1.187337 
0.030285 -1.088961 -0.199703 
-0.174337 -0.782723 1.01445 
0.126336 -1.232711 -0.292113 
-0.205952 -0.735407 0.826857 
0.230557 -1.388689 -0.349018 
-0.216626 -0.719431 0.631767 
0.230557 -1.388689 1.612552 
-0.205952 -0.735407 0.436677 
0.126336 -1.232711 1.555646 
-0.174337 -0.782723 0.249083 
0.030285 -1.088961 1.463236 
0.264285 -1.37066 -0.349018 
-0.043739 -0.627021 0.631767 
-0.036387 -0.644773 0.436677 
0.264285 -1.37066 1.612552 
0.192497 -1.197347 1.555646 
-0.01461 -0.697347 0.249083 
0.126336 -1.037621 1.463236 
0.020754 -0.782723 0.076197 
0.068345 -0.897619 1.338874 
0.068345 -0.897619 -0.07534 
0.020754 -0.782723 1.187337 
0.126336 -1.037621 -0.199703 
-0.01461 -0.697347 1.01445 
0.192497 -1.197347 -0.292113 
-0.036387 -0.644773 0.826857 
0.200993 -0.857381 -0.07534 
0.230557 -1.006006 -0.199703 
0.176732 -0.735408 1.187337 
0.158703 -0.644773 1.01445 
0.264285 -1.17557 -0.292113 
0.147602 -0.588961 0.826857 
0.300883 -1.359559 -0.349018 
0.143853 -0.570116 0.631767 
0.300883 -1.359559 1.612552 
0.147602 -0.588961 0.436677 
0.264285 -1.17557 1.555646 
0.158703 -0.644773 0.249083 
0.230557 -1.006006 1.463236 
0.176732 -0.735408 0.076197 
0.200993 -0.857381 1.338874 
3 0 1 2 
3 0 2 3 
3 4 5 6 
3 4 6 7 
3 8 9 10 
3 8 10 11 
3 12 13 14 
3 12 14 15 
3 16 17 18 
3 16 18 19 
3 18 15 9 
3 19 8 2 
3 5 10 14 
3 3 11 4 
3 0 3 4 
3 0 4 7 
3 11 10 5 
3 11 5 4 
3 9 8 19 
3 9 19 18 
3 15 14 10 
3 15 10 9 
3 12 15 18 
3 12 18 17 
3 3 2 8 
3 3 8 11 
3 14 13 6 
3 14 6 5 
3 13 12 17 
3 13 17 6 
3 2 1 16 
3 2 16 19 
3 0 7 6 
3 0 6 17 
3 0 17 16 
3 0 16 1 
3 20 21 22 
3 20 22 23 
3 23 22 24 
3 23 24 25 
3 25 24 26 
3 25 26 27 
3 27 26 21 
3 27 21 20 
3 23 25 27 
3 23 27 20 
3 24 22 21 
3 24 21 26 
3 28 29 30 
3 30 29 31 
3 31 29 32 
3 32 29 33 
3 33 29 34 
3 34 29 35 
3 35 29 36 
3 36 29 37 
3 37 29 38 
3 38 29 39 
3 39 29 40 
3 40 29 41 
3 41 29 42 
3 42 29 43 
3 43 29 44 
3 44 29 45 
3 45 29 46 
3 46 29 47 
3 47 29 48 
3 48 29 49 
3 49 29 50 
3 50 29 51 
3 51 29 52 
3 52 29 53 
3 53 29 54 
3 54 29 55 
3 55 29 56 
3 56 29 57 
3 57 29 58 
3 58 29 59 
3 28 30 31 
3 28 31 32 
3 28 32 33 
3 28 33 34 
3 28 34 35 
3 28 35 36 
3 28 36 37 
3 28 37 38 
3 28 38 39 
3 28 39 40 
3 28 40 41 
3 28 41 42 
3 28 42 43 
3 28 43 44 
3 28 44 45 
3 28 45 46 
3 28 46 47 
3 28 47 48 
3 28 48 49 
3 28 49 50 
3 28 50 51 
3 28 51 52 
3 28 52 53 
3 28 53 54 
3 28 54 55 
3 28 55 56 
3 28 56 57 
3 28 57 58 
3 28 58 59 
3 28 59 60 
3 59 29 60 
3 60 29 28 
3 61 62 63 
3 64 62 65 
3 61 63 66 
3 61 66 67 
3 61 67 68 
3 64 65 69 
3 70 71 72 
3 73 74 75 
3 76 77 78 
3 79 80 81 
3 64 69 82 
3 70 72 83 
3 73 75 84 
3 76 78 85 
3 79 81 86 
3 87 88 89 
3 90 91 92 
3 93 94 95 
3 96 97 98 
3 99 100 101 
3 101 98 102 
3 101 100 98 
3 100 96 98 
3 98 95 102 
3 98 97 95 
3 97 93 95 
3 95 92 102 
3 95 94 92 
3 94 90 92 
3 92 89 102 
3 92 91 89 
3 91 87 89 
3 89 101 102 
3 89 88 101 
3 88 99 101 
3 86 100 99 
3 86 81 100 
3 81 96 100 
3 85 97 96 
3 85 78 97 
3 78 93 97 
3 84 94 93 
3 84 75 94 
3 75 90 94 
3 83 91 90 
3 83 72 91 
3 72 87 91 
3 82 88 87 
3 82 69 88 
3 69 99 88 
3 81 85 96 
3 81 80 85 
3 80 76 85 
3 78 84 93 
3 78 77 84 
3 77 73 84 
3 75 83 90 
3 75 74 83 
3 74 70 83 
3 72 82 87 
3 72 71 82 
3 71 64 82 
3 69 86 99 
3 69 65 86 
3 65 79 86 
3 68 80 79 
3 68 67 80 
3 67 76 80 
3 67 77 76 
3 67 66 77 
3 66 73 77 
3 66 74 73 
3 66 63 74 
3 63 70 74 
3 65 68 79 
3 65 62 68 
3 62 61 68 
3 63 71 70 
3 63 62 71 
3 62 64 71 
3 103 104 105 
3 103 105 106 
3 107 108 109 
3 107 109 110 
3 111 103 106 
3 111 106 112 
3 113 107 110 
3 113 110 114 
3 115 111 112 
3 115 112 116 
3 117 113 114 
3 117 114 118 
3 119 115 116 
3 119 116 120 
3 121 117 118 
3 121 118 122 
3 123 119 120 
3 123 120 124 
3 125 121 122 
3 125 122 126 
3 127 123 124 
3 127 124 128 
3 129 125 126 
3 129 126 130 
3 131 127 128 
3 131 128 132 
3 104 129 130 
3 104 130 105 
3 108 133 109 
3 134 131 132 
3 132 128 135 
3 132 135 136 
3 105 130 137 
3 105 137 138 
3 109 133 139 
3 134 132 136 
3 106 105 138 
3 106 138 140 
3 110 109 139 
3 110 139 141 
3 112 106 140 
3 112 140 142 
3 114 110 141 
3 114 141 143 
3 116 112 142 
3 116 142 144 
3 118 114 143 
3 118 143 145 
3 120 116 144 
3 120 144 146 
3 122 118 145 
3 122 145 147 
3 124 120 146 
3 124 146 148 
3 126 122 147 
3 126 147 149 
3 128 124 148 
3 128 148 135 
3 130 126 149 
3 130 149 137 
3 146 144 150 
3 146 150 151 
3 147 145 152 
3 147 152 153 
3 148 146 151 
3 148 151 154 
3 149 147 153 
3 149 153 155 
3 135 148 154 
3 135 154 156 
3 137 149 155 
3 137 155 157 
3 136 135 156 
3 136 156 158 
3 138 137 157 
3 138 157 159 
3 139 133 160 
3 134 136 158 
3 140 138 159 
3 140 159 161 
3 141 139 160 
3 141 160 162 
3 142 140 161 
3 142 161 163 
3 143 141 162 
3 143 162 164 
3 144 142 163 
3 144 163 150 
3 145 143 164 
3 145 164 152 
3 160 133 165 
3 134 158 166 
3 161 159 167 
3 161 167 168 
3 162 160 165 
3 162 165 169 
3 163 161 168 
3 163 168 170 
3 164 162 169 
3 164 169 171 
3 150 163 170 
3 150 170 172 
3 152 164 171 
3 152 171 173 
3 151 150 172 
3 151 172 174 
3 153 152 173 
3 153 173 175 
3 154 151 174 
3 154 174 176 
3 155 153 175 
3 155 175 177 
3 156 154 176 
3 156 176 178 
3 157 155 177 
3 157 177 179 
3 158 156 178 
3 158 178 166 
3 159 157 179 
3 159 179 167 
3 175 173 180 
3 175 180 181 
3 176 174 182 
3 176 182 183 
3 177 175 181 
3 177 181 184 
3 178 176 183 
3 178 183 185 
3 179 177 184 
3 179 184 186 
3 166 178 185 
3 166 185 187 
3 167 179 186 
3 167 186 188 
3 165 133 189 
3 134 166 187 
3 168 167 188 
3 168 188 190 
3 169 165 189 
3 169 189 191 
3 170 168 190 
3 170 190 192 
3 171 169 191 
3 171 191 193 
3 172 170 192 
3 172 192 194 
3 173 171 193 
3 173 193 180 
3 174 172 194 
3 174 194 182 
3 190 188 195 
3 190 195 196 
3 191 189 197 
3 191 197 198 
3 192 190 196 
3 192 196 199 
3 193 191 198 
3 193 198 200 
3 194 192 199 
3 194 199 201 
3 180 193 200 
3 180 200 202 
3 182 194 201 
3 182 201 203 
3 181 180 202 
3 181 202 204 
3 183 182 203 
3 183 203 205 
3 184 181 204 
3 184 204 206 
3 185 183 205 
3 185 205 207 
3 186 184 206 
3 186 206 208 
3 187 185 207 
3 187 207 209 
3 188 186 208 
3 188 208 195 
3 189 133 197 
3 134 187 209 
3 205 203 210 
3 205 210 211 
3 206 204 212 
3 206 212 213 
3 207 205 211 
3 207 211 214 
3 208 206 213 
3 208 213 215 
3 209 207 214 
3 209 214 216 
3 195 208 215 
3 195 215 217 
3 197 133 218 
3 134 209 216 
3 196 195 217 
3 196 217 219 
3 198 197 218 
3 198 218 220 
3 199 196 219 
3 199 219 221 
3 200 198 220 
3 200 220 222 
3 201 199 221 
3 201 221 223 
3 202 200 222 
3 202 222 224 
3 203 201 223 
3 203 223 210 
3 204 202 224 
3 204 224 212 
3 220 218 225 
3 220 225 226 
3 221 219 227 
3 221 227 228 
3 222 220 226 
3 222 226 229 
3 223 221 228 
3 223 228 230 
3 224 222 229 
3 224 229 231 
3 210 223 230 
3 210 230 232 
3 212 224 231 
3 212 231 233 
3 211 210 232 
3 211 232 234 
3 213 212 233 
3 213 233 235 
3 214 211 234 
3 214 234 236 
3 215 213 235 
3 215 235 237 
3 216 214 236 
3 216 236 238 
3 217 215 237 
3 217 237 239 
3 218 133 225 
3 134 216 238 
3 219 217 239 
3 219 239 227 
3 235 233 240 
3 235 240 241 
3 236 234 242 
3 236 242 243 
3 237 235 241 
3 237 241 244 
3 238 236 243 
3 238 243 245 
3 239 237 244 
3 239 244 246 
3 225 133 247 
3 134 238 245 
3 227 239 246 
3 227 246 248 
3 226 225 247 
3 226 247 249 
3 228 227 248 
3 228 248 250 
3 229 226 249 
3 229 249 251 
3 230 228 250 
3 230 250 252 
3 231 229 251 
3 231 251 253 
3 232 230 252 
3 232 252 254 
3 233 231 253 
3 233 253 240 
3 234 232 254 
3 234 254 242 
3 250 248 255 
3 250 255 256 
3 251 249 257 
3 251 257 258 
3 252 250 256 
3 252 256 259 
3 253 251 258 
3 253 258 260 
3 254 252 259 
3 254 259 261 
3 240 253 260 
3 240 260 262 
3 242 254 261 
3 242 261 263 
3 241 240 262 
3 241 262 264 
3 243 242 263 
3 243 263 265 
3 244 241 264 
3 244 264 266 
3 245 243 265 
3 245 265 267 
3 246 244 266 
3 246 266 268 
3 247 133 269 
3 134 245 267 
3 248 246 268 
3 248 268 255 
3 249 247 269 
3 249 269 257 
3 265 263 270 
3 265 270 271 
3 266 264 272 
3 266 272 273 
3 267 265 271 
3 267 271 274 
3 268 266 273 
3 268 273 275 
3 269 133 276 
3 134 267 274 
3 255 268 275 
3 255 275 277 
3 257 269 276 
3 257 276 278 
3 256 255 277 
3 256 277 279 
3 258 257 278 
3 258 278 280 
3 259 256 279 
3 259 279 281 
3 260 258 280 
3 260 280 282 
3 261 259 281 
3 261 281 283 
3 262 260 282 
3 262 282 284 
3 263 261 283 
3 263 283 270 
3 264 262 284 
3 264 284 272 
3 281 279 285 
3 281 285 286 
3 282 280 287 
3 282 287 288 
3 283 281 286 
3 283 286 289 
3 284 282 288 
3 284 288 290 
3 270 283 289 
3 270 289 291 
3 272 284 290 
3 272 290 292 
3 271 270 291 
3 271 291 293 
3 273 272 292 
3 273 292 294 
3 274 271 293 
3 274 293 295 
3 275 273 294 
3 275 294 296 
3 276 133 297 
3 134 274 295 
3 277 275 296 
3 277 296 298 
3 278 276 297 
3 278 297 299 
3 279 277 298 
3 279 298 285 
3 280 278 299 
3 280 299 287 
3 295 293 300 
3 295 300 301 
3 296 294 302 
3 296 302 303 
3 297 133 304 
3 134 295 301 
3 298 296 303 
3 298 303 305 
3 299 297 304 
3 299 304 306 
3 285 298 305 
3 285 305 307 
3 287 299 306 
3 287 306 308 
3 286 285 307 
3 286 307 309 
3 288 287 308 
3 288 308 310 
3 289 286 309 
3 289 309 311 
3 290 288 310 
3 290 310 312 
3 291 289 311 
3 291 311 313 
3 292 290 312 
3 292 312 314 
3 293 291 313 
3 293 313 300 
3 294 292 314 
3 294 314 302 
3 310 308 315 
3 310 315 316 
3 311 309 317 
3 311 317 318 
3 312 310 316 
3 312 316 319 
3 313 311 318 
3 313 318 320 
3 314 312 319 
3 314 319 321 
3 300 313 320 
3 300 320 322 
3 302 314 321 
3 302 321 323 
3 301 300 322 
3 301 322 324 
3 303 302 323 
3 303 323 325 
3 304 133 326 
3 134 301 324 
3 305 303 325 
3 305 325 327 
3 306 304 326 
3 306 326 328 
3 307 305 327 
3 307 327 329 
3 308 306 328 
3 308 328 315 
3 309 307 329 
3 309 329 317 
3 325 323 330 
3 325 330 331 
3 326 133 332 
3 134 324 333 
3 327 325 331 
3 327 331 334 
3 328 326 332 
3 328 332 335 
3 329 327 334 
3 329 334 336 
3 315 328 335 
3 315 335 337 
3 317 329 336 
3 317 336 338 
3 316 315 337 
3 316 337 339 
3 318 317 338 
3 318 338 340 
3 319 316 339 
3 319 339 341 
3 320 318 340 
3 320 340 342 
3 321 319 341 
3 321 341 343 
3 322 320 342 
3 322 342 344 
3 323 321 343 
3 323 343 330 
3 324 322 344 
3 324 344 333 
3 340 338 345 
3 340 345 346 
3 341 339 347 
3 341 347 348 
3 342 340 346 
3 342 346 349 
3 343 341 348 
3 343 348 350 
3 344 342 349 
3 344 349 351 
3 330 343 350 
3 330 350 352 
3 333 344 351 
3 333 351 353 
3 331 330 352 
3 331 352 354 
3 332 133 355 
3 134 333 353 
3 334 331 354 
3 334 354 356 
3 335 332 355 
3 335 355 357 
3 336 334 356 
3 336 356 358 
3 337 335 357 
3 337 357 359 
3 338 336 358 
3 338 358 345 
3 339 337 359 
3 339 359 347 
3 355 133 360 
3 134 353 361 
3 356 354 362 
3 356 362 363 
3 357 355 360 
3 357 360 364 
3 358 356 363 
3 358 363 365 
3 359 357 364 
3 359 364 366 
3 345 358 365 
3 345 365 367 
3 347 359 366 
3 347 366 368 
3 346 345 367 
3 346 367 369 
3 348 347 368 
3 348 368 370 
3 349 346 369 
3 349 369 371 
3 350 348 370 
3 350 370 372 
3 351 349 371 
3 351 371 373 
3 352 350 372 
3 352 372 374 
3 353 351 373 
3 353 373 361 
3 354 352 374 
3 354 374 362 
3 370 368 375 
3 370 375 376 
3 371 369 377 
3 371 377 378 
3 372 370 376 
3 372 376 379 
3 373 371 378 
3 373 378 380 
3 374 372 379 
3 374 379 381 
3 361 373 380 
3 361 380 382 
3 362 374 381 
3 362 381 383 
3 360 133 384 
3 134 361 382 
3 363 362 383 
3 363 383 385 
3 364 360 384 
3 364 384 386 
3 365 363 385 
3 365 385 387 
3 366 364 386 
3 366 386 388 
3 367 365 387 
3 367 387 389 
3 368 366 388 
3 368 388 375 
3 369 367 389 
3 369 389 377 
3 385 383 390 
3 385 390 391 
3 386 384 392 
3 386 392 393 
3 387 385 391 
3 387 391 394 
3 388 386 393 
3 388 393 395 
3 389 387 394 
3 389 394 396 
3 375 388 395 
3 375 395 397 
3 377 389 396 
3 377 396 398 
3 376 375 397 
3 376 397 399 
3 378 377 398 
3 378 398 400 
3 379 376 399 
3 379 399 401 
3 380 378 400 
3 380 400 402 
3 381 379 401 
3 381 401 403 
3 382 380 402 
3 382 402 404 
3 383 381 403 
3 383 403 390 
3 384 133 392 
3 134 382 404 
3 400 398 405 
3 400 405 406 
3 401 399 407 
3 401 407 408 
3 402 400 406 
3 402 406 409 
3 403 401 408 
3 403 408 410 
3 404 402 409 
3 404 409 411 
3 390 403 410 
3 390 410 412 
3 392 133 413 
3 134 404 411 
3 391 390 412 
3 391 412 414 
3 393 392 413 
3 393 413 415 
3 394 391 414 
3 394 414 416 
3 395 393 415 
3 395 415 417 
3 396 394 416 
3 396 416 418 
3 397 395 417 
3 397 417 419 
3 398 396 418 
3 398 418 405 
3 399 397 419 
3 399 419 407 
3 416 414 420 
3 416 420 421 
3 417 415 422 
3 417 422 423 
3 418 416 421 
3 418 421 424 
3 419 417 423 
3 419 423 425 
3 405 418 424 
3 405 424 426 
3 407 419 425 
3 407 425 427 
3 406 405 426 
3 406 426 428 
3 408 407 427 
3 408 427 429 
3 409 406 428 
3 409 428 430 
3 410 408 429 
3 410 429 431 
3 411 409 430 
3 411 430 432 
3 412 410 431 
3 412 431 433 
3 413 133 434 
3 134 411 432 
3 414 412 433 
3 414 433 420 
3 415 413 434 
3 415 434 422 
3 430 428 435 
3 430 435 436 
3 431 429 437 
3 431 437 438 
3 432 430 436 
3 432 436 439 
3 433 431 438 
3 433 438 440 
3 434 133 441 
3 134 432 439 
3 420 433 440 
3 420 440 442 
3 422 434 441 
3 422 441 443 
3 421 420 442 
3 421 442 444 
3 423 422 443 
3 423 443 445 
3 424 421 444 
3 424 444 446 
3 425 423 445 
3 425 445 447 
3 426 424 446 
3 426 446 448 
3 427 425 447 
3 427 447 449 
3 428 426 448 
3 428 448 435 
3 429 427 449 
3 429 449 437 
3 445 443 450 
3 445 450 451 
3 446 444 452 
3 446 452 453 
3 447 445 451 
3 447 451 454 
3 448 446 453 
3 448 453 455 
3 449 447 454 
3 449 454 456 
3 435 448 455 
3 435 455 457 
3 437 449 456 
3 437 456 458 
3 436 435 457 
3 436 457 459 
3 438 437 458 
3 438 458 460 
3 439 436 459 
3 439 459 461 
3 440 438 460 
3 440 460 462 
3 441 133 463 
3 134 439 461 
3 442 440 462 
3 442 462 464 
3 443 441 463 
3 443 463 450 
3 444 442 464 
3 444 464 452 
3 460 458 465 
3 460 465 466 
3 461 459 467 
3 461 467 468 
3 462 460 466 
3 462 466 469 
3 463 133 470 
3 134 461 468 
3 464 462 469 
3 464 469 471 
3 450 463 470 
3 450 470 472 
3 452 464 471 
3 452 471 473 
3 451 450 472 
3 451 472 474 
3 453 452 473 
3 453 473 475 
3 454 451 474 
3 454 474 476 
3 455 453 475 
3 455 475 477 
3 456 454 476 
3 456 476 478 
3 457 455 477 
3 457 477 479 
3 458 456 478 
3 458 478 465 
3 459 457 479 
3 459 479 467 
3 475 473 480 
3 475 480 481 
3 476 474 482 
3 476 482 483 
3 477 475 481 
3 477 481 484 
3 478 476 483 
3 478 483 485 
3 479 477 484 
3 479 484 486 
3 465 478 485 
3 465 485 487 
3 467 479 486 
3 467 486 488 
3 466 465 487 
3 466 487 489 
3 468 467 488 
3 468 488 490 
3 469 466 489 
3 469 489 491 
3 470 133 492 
3 134 468 490 
3 471 469 491 
3 471 491 493 
3 472 470 492 
3 472 492 494 
3 473 471 493 
3 473 493 480 
3 474 472 494 
3 474 494 482 
3 490 488 495 
3 490 495 496 
3 491 489 497 
3 491 497 498 
3 492 133 499 
3 134 490 496 
3 493 491 498 
3 493 498 500 
3 494 492 499 
3 494 499 501 
3 480 493 500 
3 480 500 502 
3 482 494 501 
3 482 501 503 
3 481 480 502 
3 481 502 504 
3 483 482 503 
3 483 503 505 
3 484 481 504 
3 484 504 506 
3 485 483 505 
3 485 505 507 
3 486 484 506 
3 486 506 508 
3 487 485 507 
3 487 507 509 
3 488 486 508 
3 488 508 495 
3 489 487 509 
3 489 509 497 
3 505 503 510 
3 505 510 511 
3 506 504 512 
3 506 512 513 
3 507 505 511 
3 507 511 514 
3 508 506 513 
3 508 513 515 
3 509 507 514 
3 509 514 516 
3 495 508 515 
3 495 515 517 
3 497 509 516 
3 497 516 518 
3 496 495 517 
3 496 517 519 
3 498 497 518 
3 498 518 520 
3 499 133 521 
3 134 496 519 
3 500 498 520 
3 500 520 522 
3 501 499 521 
3 501 521 523 
3 502 500 522 
3 502 522 524 
3 503 501 523 
3 503 523 510 
3 504 502 524 
3 504 524 512 
3 520 518 525 
3 520 525 526 
3 521 133 527 
3 134 519 528 
3 522 520 526 
3 522 526 529 
3 523 521 527 
3 523 527 530 
3 524 522 529 
3 524 529 531 
3 510 523 530 
3 510 530 532 
3 512 524 531 
3 512 531 533 
3 511 510 532 
3 511 532 534 
3 513 512 533 
3 513 533 535 
3 514 511 534 
3 514 534 536 
3 515 513 535 
3 515 535 537 
3 516 514 536 
3 516 536 538 
3 517 515 537 
3 517 537 539 
3 518 516 538 
3 518 538 525 
3 519 517 539 
3 519 539 528 
3 535 533 540 
3 535 540 541 
3 536 534 542 
3 536 542 543 
3 537 535 541 
3 537 541 544 
3 538 536 543 
3 538 543 545 
3 539 537 544 
3 539 544 546 
3 525 538 545 
3 525 545 547 
3 528 539 546 
3 528 546 548 
3 526 525 547 
3 526 547 549 
3 527 133 550 
3 134 528 548 
3 529 526 549 
3 529 549 551 
3 530 527 550 
3 530 550 552 
3 531 529 551 
3 531 551 553 
3 532 530 552 
3 532 552 554 
3 533 531 553 
3 533 553 540 
3 534 532 554 
3 534 554 542 
3 134 548 555 
3 551 549 556 
3 551 556 557 
3 552 550 558 
3 552 558 559 
3 553 551 557 
3 553 557 560 
3 554 552 559 
3 554 559 561 
3 540 553 560 
3 540 560 562 
3 542 554 561 
3 542 561 563 
3 541 540 562 
3 541 562 564 
3 543 542 563 
3 543 563 565 
3 544 541 564 
3 544 564 566 
3 545 543 565 
3 545 565 567 
3 546 544 566 
3 546 566 568 
3 547 545 567 
3 547 567 569 
3 548 546 568 
3 548 568 555 
3 549 547 569 
3 549 569 556 
3 550 133 558 
3 566 564 570 
3 566 570 571 
3 567 565 572 
3 567 572 573 
3 568 566 571 
3 568 571 574 
3 569 567 573 
3 569 573 575 
3 555 568 574 
3 555 574 576 
3 556 569 575 
3 556 575 577 
3 558 133 578 
3 134 555 576 
3 557 556 577 
3 557 577 579 
3 559 558 578 
3 559 578 580 
3 560 557 579 
3 560 579 581 
3 561 559 580 
3 561 580 582 
3 562 560 581 
3 562 581 583 
3 563 561 582 
3 563 582 584 
3 564 562 583 
3 564 583 570 
3 565 563 584 
3 565 584 572 
3 580 578 108 
3 580 108 107 
3 581 579 103 
3 581 103 111 
3 582 580 107 
3 582 107 113 
3 583 581 111 
3 583 111 115 
3 584 582 113 
3 584 113 117 
3 570 583 115 
3 570 115 119 
3 572 584 117 
3 572 117 121 
3 571 570 119 
3 571 119 123 
3 573 572 121 
3 573 121 125 
3 574 571 123 
3 574 123 127 
3 575 573 125 
3 575 125 129 
3 576 574 127 
3 576 127 131 
3 577 575 129 
3 577 129 104 
3 578 133 108 
3 134 576 131 
3 579 577 104 
3 579 104 103 
